<svg viewBox="0 0 100 100" xmlns="http://www.w3.org/2000/svg">
  <style>
    .squirrel-dark { fill: #555; }
    .squirrel-light { fill: #aaa; }
    @media (prefers-color-scheme: dark) {
      .squirrel-dark { fill: #bbb; }
      .squirrel-light { fill: #777; }
    }
  </style>
  <path class="squirrel-light" d="M47.8,95.4c-2.3-0.5-4.6-1-6.9-1.5c-4-0.9-7.9-1.8-11.5-3.4c-5.8-2.5-10.4-6.4-13.2-11.5
    c-1.8-3.3-2.5-7-2.2-10.7c0.2-2.5,0.7-5,1.5-7.4c1.1-3.2,2.6-6.2,4.6-8.9c1.4-1.9,3.1-3.6,5-5.1c1.1-0.9,2.3-1.6,3.5-2.4
    c-2.2-2.2-3.9-4.8-5.2-7.7c-1.3-2.8-2-5.9-2-9c0-4.3,1.4-8.4,4.2-11.9c3.1-3.8,7.5-6.2,12.3-6.8c2.4-0.3,4.9-0.3,7.3,0
    c4.1,0.5,8,2,11.3,4.1c1.5,1,2.9,2.1,4.1,3.3c-2.6-1.5-5.5-2.4-8.4-2.6c-4.4-0.3-8.6,0.8-12.2,3c-3,1.8-5.3,4.4-6.6,7.5
    c-1,2.4-1.5,5-1.3,7.6c0.1,1.8,0.6,3.6,1.3,5.3c0.9,2.1,2.2,4,3.8,5.6c0.5,0.5,1,1,1.5,1.5c-1.1,0.2-2.1,0.5-3.1,0.9
    c-2.9,1.1-5.6,2.6-8,4.5c-3.2,2.5-5.7,5.7-7.3,9.4c-1.1,2.6-1.7,5.4-1.7,8.2c0,3.3,0.6,6.5,1.9,9.4
    c1.6,3.7,4.1,6.8,7.3,9.1c3.6,2.5,7.8,4.1,12.2,4.6c4,0.5,8-0.1,11.8-1.5c2.2-0.8,4.2-1.9,6.1-3.2c-1.3,0.3-2.6,0.5-3.9,0.7
    C53.3,95.9,50.6,95.7,47.8,95.4z"/>
  <path class="squirrel-dark" d="M69.3,18.6c-1.2-0.8-2.5-1.5-3.8-2.1c-3.9-1.7-8.1-2.6-12.3-2.6c-4.6,0-9.1,1.1-13.2,3.3
    c-1.2,0.6-2.3,1.3-3.4,2.1c-0.2,0.1-0.3,0.3-0.2,0.5c0.1,0.2,0.3,0.3,0.5,0.2c2.1-1.2,4.4-2.1,6.8-2.6c3.4-0.8,7-0.8,10.4-0.2
    c4.1,0.8,7.9,2.6,11.1,5.2c1.9,1.5,3.4,3.4,4.5,5.5c0.1,0.2,0.4,0.3,0.6,0.1c0.2-0.1,0.3-0.4,0.1-0.6c-1.2-2.3-2.9-4.4-4.9-6.2
    C73.8,20.4,71.6,19.4,69.3,18.6z M40.1,21.9c-0.1,0-0.2,0-0.3-0.1c-3.1-1.8-6.5-2.8-9.9-2.8c-0.9,0-1.8,0.1-2.7,0.2
    c-0.2,0-0.4-0.2-0.5-0.4c-0.1-0.2,0-0.4,0.2-0.5c1-0.2,2-0.3,3-0.3c3.6,0,7.2,1.1,10.4,3c0.2,0.1,0.3,0.3,0.2,0.5
    C40.4,21.8,40.3,21.9,40.1,21.9z M61.2,28.9c-0.7-1.1-1.5-2.1-2.4-3c-1.6-1.6-3.4-2.9-5.4-3.9c-0.2-0.1-0.4-0.1-0.6,0
    c-0.2,0.1-0.3,0.3-0.2,0.5c2.3,1.2,4.3,2.8,6,4.7c0.9,1,1.7,2.1,2.4,3.3c0.1,0.2,0.4,0.3,0.6,0.1C61.7,29.4,61.5,29.1,61.2,28.9z
     M37.1,56.1c0.7,2.2,1.7,4.3,3,6.3c1.9,2.8,4.3,5.2,7.1,7c1.3,0.8,2.7,1.5,4.1,2.1c-2.3,0.6-4.6,0.9-7,0.9
    c-4.8,0-9.4-1.3-13.4-3.8c-3-1.8-5.4-4.4-6.8-7.5c-1-2.2-1.5-4.5-1.5-6.9c0-3,0.6-5.9,1.9-8.6c1.6-3.5,4-6.5,7.1-8.9
    c2.7-2.1,5.8-3.6,9.1-4.5c2.9-0.8,5.9-1.1,8.8-0.9c0.3,0,0.5-0.2,0.5-0.5c0-0.3-0.2-0.5-0.5-0.5c-3-0.2-6.1,0.1-9,0.9
    c-3.4,1-6.6,2.5-9.4,4.7c-3.4,2.6-6,5.9-7.4,9.8c-1.3,3.5-1.9,7.3-1.8,11c0.2,4.1,1.4,8,3.4,11.5c3.1,5.5,7.9,9.7,13.8,12.1
    c4.1,1.7,8.5,2.5,13,2.5c2.6,0,5.1-0.3,7.6-0.9c-1.5-0.6-3-1.4-4.4-2.3c-3.1-2-5.7-4.6-7.7-7.7C38.6,60.1,37.6,58.1,37.1,56.1z
     M62.1,34.4c-1.4-1.9-3.2-3.5-5.2-4.7c-1.7-1-3.6-1.8-5.5-2.3c-0.2-0.1-0.5,0-0.6,0.2c-0.1,0.2,0,0.5,0.2,0.6
    c2,0.5,3.9,1.3,5.6,2.4c2,1.3,3.7,2.9,5.1,4.8c0.1,0.2,0.4,0.3,0.6,0.1C62.4,35.1,62.4,34.7,62.1,34.4z M49.6,40.4
    c-1.3,0-2.6-0.3-3.8-0.8c-2.4-1.1-4.4-2.8-5.8-4.9c-0.8-1.2-1.4-2.5-1.8-3.9c-0.5-1.8-0.6-3.6-0.3-5.4c0.2-1.2,0.6-2.4,1.1-3.5
    c0.1-0.2,0-0.5-0.2-0.6c-0.2-0.1-0.5,0-0.6,0.2c-0.6,1.2-1,2.5-1.2,3.8c-0.3,2-0.2,4.1,0.4,6c0.4,1.5,1.1,3,1.9,4.3
    c1.6,2.3,3.7,4.2,6.2,5.3c1.3,0.6,2.7,0.9,4.1,0.9c1,0,2-0.1,2.9-0.4c0.2-0.1,0.4-0.3,0.3-0.5c-0.1-0.2-0.3-0.3-0.5-0.3
    C51.1,40.3,50.3,40.4,49.6,40.4z"/>
</svg>
